#!OML:ASF F:\VICON\USERDATA\INSTALL\rory3\rory3.ASF
:FULLY-SPECIFIED
:DEGREES
105
root -0.10514269480163274 17.741689717156046 -14.31676817692928 18.860382504063136 1.9749277809317023 -0.16030389304706516
lfemur -43.69568509743763 6.561887384625427 -20.320833744494198
ltibia 59.810493947699044
lfoot -13.312611743898994 8.68892328846549
ltoes 5.23374785585178
rfemur -38.134170109599616 -6.0838197425757325 20.60921563142928
rtibia 40.57936507489474
rfoot -18.690170924809486 -5.639774036606031
rtoes 14.56365502581567
lowerback 5.068124749214897 -0.2597053973543063 -1.1999356386847138
upperback 4.234399391260092 -0.41625009344127795 1.4458975125705964
thorax 0.7548662005957625 -0.25346203674105827 1.760166573442624
lowerneck -14.811516797612652 -3.6273758399912444 -3.121093117308164
upperneck 25.528632514095975 -3.4127520047311246 -0.8546757820311686
head 11.025144812571988 -2.268204409596697 0.585878776251976
lclavicle -1.2112588368040559e-17 -8.161703420988759e-16
lhumerus -16.181350402649212 -5.284951955860081 87.68903073732157
lradius 20.318218943306704
lwrist 6.390642672143839
lhand -27.649944058025266 -5.43057868670596
lfingers 7.125019999999999
lthumb -1.4002261150969604 25.2410687731285
rclavicle -1.1328959391985722e-17 -8.155363743575214e-16
rhumerus -19.191245272939437 -3.414816387631153 -83.01881114820998
rradius 29.449982140633384
rwrist 24.509633712219415
rhand -21.600284484783476 -27.49478125374966
rfingers 7.125019999999999
rthumb 5.473532144463358 -57.26278572887953
106
root -0.13185178888179327 17.89950374440531 -13.982263611042846 18.340522782921024 2.112139306494618 -0.16356668736897106
lfemur -42.28539125910352 6.61724083936722 -20.20883052380769
ltibia 57.447135263751626
lfoot -12.77266484298734 8.219555525149762
ltoes 5.7255545945172255
rfemur -36.250133486381706 -6.3333837965224244 20.66917844575501
rtibia 37.763046648690626
rfoot -16.950069666689007 -5.016711702654244
rtoes 15.870851624000535
lowerback 5.2157628074135935 -0.234427832211908 -1.141297811056296
upperback 4.615824529619703 -0.38138971642344094 1.437672892262441
thorax 0.9890657325977164 -0.23977350397834815 1.7691130479645116
lowerneck -14.532962924973969 -3.8982677688801024 -3.1623823879413004
upperneck 26.2135966586828 -3.759057402739254 -0.6415378019537972
head 11.098574025545204 -2.418798377108283 0.6761218058023569
lclavicle -1.1996864441224699e-17 -8.16046536489828e-16
lhumerus -16.5273501700025 -5.6783895000956 87.69514518861493
lradius 20.250487638387792
lwrist 6.698092113132752
lhand -27.678062582487854 -5.5598209347280845
lfingers 7.125019999999999
lthumb -1.5548065162661757 25.033596036213286
rclavicle -1.1361256048990476e-17 -8.155798274605502e-16
rhumerus -19.464776845159577 -3.3337419985606505 -82.90333046398732
rradius 29.741787882175963
rwrist 24.295419719979414
rhand -21.66295760205751 -27.47749060218072
rfingers 7.125019999999999
rthumb 5.4800254798589485 -57.22325922706866
107
root -0.15730783328644515 18.18056788833306 -13.596580116268333 17.21082817549902 2.3168951128052653 -0.07656592376361582
lfemur -38.94929878268711 6.672201868035683 -19.994603795902115
ltibia 53.838395386863255
lfoot -11.70605148832607 7.521138875404662
ltoes 6.53495277398822
rfemur -33.11961597768196 -6.698871329927238 20.541682973507953
rtibia 34.20217027796009
rfoot -14.227229064331713 -4.584897486343371
rtoes 17.395773444788396
lowerback 5.288210333877004 -0.23513092809923503 -1.191931905307087
upperback 5.306623709820462 -0.387657804476069 1.3987158120291983
thorax 1.3414592260365057 -0.2515309267835777 1.7808637388139983
lowerneck -14.088834019229674 -4.156750459452902 -3.1454830741647486
upperneck 27.27795025008771 -4.143030678702906 -0.3914272453363876
head 11.243938875095699 -2.5843590949901922 0.7728074064991439
lclavicle -1.2007306268770493e-17 -8.160700437528496e-16
lhumerus -17.053888965010408 -6.892920469468038 87.81581274964121
lradius 20.291634981162783
lwrist 7.6004185813957506
lhand -27.698599814102828 -5.709725024511576
lfingers 7.125019999999999
lthumb -1.6330358517765 24.805510567361715
rclavicle -1.1481389434750411e-17 -8.157385476839528e-16
rhumerus -19.907659053141916 -3.066282317808024 -82.74352510698185
rradius 30.151449279489682
rwrist 23.996157657078037
rhand -21.581671759755043 -27.366122389719827
rfingers 7.125019999999999
rthumb 5.561961497317256 -57.128360652767284
108
root -0.1732814818224031 18.61193791978522 -13.164745497996698 15.159680527994068 2.7708040041999293 0.016012290939882545
lfemur -33.50544970125912 6.610461782467779 -19.5074324962451
ltibia 49.16079291387227
lfoot -9.547026680048226 6.364330292048046
ltoes 8.00130499999405
rfemur -28.129748604101614 -7.089475003601756 20.25696536206055
rtibia 30.753453411600265
rfoot -10.085190274760496 -4.784161359106249
rtoes 19.522527986380197
lowerback 5.2862786665738435 -0.3205521826766476 -1.1904575956478989
upperback 6.474212254180916 -0.5132198986942337 1.3779178324136105
thorax 1.9599742410042058 -0.32560275590892807 1.8003264224262399
lowerneck -13.400245797559135 -4.512931293420458 -3.1283275121565737
upperneck 28.71580667731232 -4.700334731553449 -0.03061594786311339
head 11.405730787487505 -2.8268614538181525 0.9020256686436707
lclavicle -1.2076765715697083e-17 -8.161618191649203e-16
lhumerus -17.817947056399028 -9.489481271949181 88.15245900117569
lradius 20.584422722472894
lwrist 9.410864697206264
lhand -27.76999096746898 -5.894630760994554
lfingers 7.125019999999999
lthumb -1.6818842600201491 24.543554135546742
rclavicle -1.1599408572117337e-17 -8.158934569829285e-16
rhumerus -20.57003284047211 -2.576247429241954 -82.51747040723558
rradius 30.803605483183873
rwrist 23.56491484748125
rhand -21.224310589091388 -27.07137444847267
rfingers 7.125019999999999
rthumb 5.8374441468416105 -56.898513966153466
109
root -0.1805486984290362 19.151934442833962 -12.755720610566598 12.591569755497867 3.0562524616762063 0.2602825981497412
lfemur -27.795229293151788 6.391761376382368 -18.966325220696838
ltibia 45.083578915573504
lfoot -5.864482931884613 4.80694395233446
ltoes 10.431718546127527
rfemur -23.553205867937724 -7.134567025108389 19.688089215749134
rtibia 30.43892459004
rfoot -5.046828473094415 -5.708388463488814
rtoes 22.574468336760656
lowerback 5.105213066479736 -0.3448554790240427 -1.432933505279422
upperback 7.965678901584351 -0.5479391917238826 1.3102573743406571
thorax 2.809072175274742 -0.36471210782355645 1.859508928651573
lowerneck -12.481001136641998 -4.999842421393638 -3.168665711489667
upperneck 30.245107493305355 -5.46735353564628 0.4806376077252018
head 11.55314702663791 -3.1511975310997453 1.0785625957600025
lclavicle -1.219731759461746e-17 -8.163507953364209e-16
lhumerus -18.78593266101199 -12.895310105554115 88.5732563719057
lradius 21.274884479835634
lwrist 12.045907877407402
lhand -28.01420507773782 -6.191141337154999
lfingers 7.125019999999999
lthumb -1.7903041636993837 24.20746203848185
rclavicle -1.1540459089397019e-17 -8.158160798679768e-16
rhumerus -21.407883538338712 -1.790669071526643 -82.27684803866269
rradius 31.72197927453324
rwrist 23.04300929969572
rhand -20.50190135770615 -26.594909512712285
rfingers 7.125019999999999
rthumb 6.392439867268474 -56.544305388889676
110
root -0.16799642162333317 19.703414706533312 -12.421068631594633 10.46948257728029 2.465126619144213 0.3563911772260837
lfemur -24.730533598180433 5.992418841212545 -18.349274864983954
ltibia 43.94161661044381
lfoot -0.9313040500122849 3.960215234557631
ltoes 12.85506902430157
rfemur -22.077730168274485 -6.776386117907264 19.36609946405444
rtibia 35.47277031276019
rfoot -0.7184516497836775 -5.8066808827321985
rtoes 25.845708468553305
lowerback 4.668666886416323 -0.11116569668586038 -1.6042092714206535
upperback 9.299974781981629 -0.20909173916580553 1.2372970242592292
thorax 3.6455982171232493 -0.22093243091713338 1.8624714858296145
lowerneck -11.543053363715927 -5.288307460352049 -3.1376340502822018
upperneck 31.197390859186605 -6.002605044493752 0.9152446147549183
head 11.52014165127018 -3.3496939368886745 1.2042755036543635
lclavicle -1.21347666586848e-17 -8.162659610947719e-16
lhumerus -19.776924247246427 -15.557898525159175 88.86553234803914
lradius 22.209877724859833
lwrist 14.508389734517909
lhand -28.23505100010401 -6.581155703015396
lfingers 7.125019999999999
lthumb -2.0153907537559426 23.798279364696462
rclavicle -1.1299196867115437e-17 -8.154981798893815e-16
rhumerus -22.214947479918884 -0.6327122330728483 -82.20879432528787
rradius 32.92078768932493
rwrist 22.345873408217972
rhand -19.64801250717617 -26.064215823148874
rfingers 7.125019999999999
rthumb 7.096178506205793 -56.136839481301074
111
root -0.13456083865056478 20.18789008891728 -12.142869822440975 8.904565619267593 1.4756455571833433 0.09883216735001699
lfemur -24.388432381022543 5.426982075913176 -17.69027946355802
ltibia 45.95365331325149
lfoot 2.1965360989350113 3.820094841238775
ltoes 13.999298272381324
rfemur -24.138678224322845 -6.441434466528157 19.76332410429465
rtibia 44.570915680154705
rfoot 1.9959726690812651 -4.5735107363983465
rtoes 27.634497900472898
lowerback 4.3310489303647275 0.12315344014969762 -1.427306939274887
upperback 10.20156617503883 0.12028929403468791 1.2314350767919113
thorax 4.324942341525823 -0.05579267928396417 1.7891324730007838
lowerneck -10.830900623293369 -4.948611195218796 -2.8374920380535213
upperneck 31.68568252817234 -5.837610202438436 1.1316225568691487
head 11.435287347678019 -3.2080357485174376 1.2375978334701687
lclavicle -1.2130566984055996e-17 -8.16270727679885e-16
lhumerus -20.61731405823783 -17.317708106905506 89.17938146617257
lradius 23.17200886704785
lwrist 16.541573033001384
lhand -28.278305207534075 -6.981267579620213
lfingers 7.125019999999999
lthumb -2.215328971859175 23.365079094102832
rclavicle -1.1329806079954302e-17 -8.155387715232235e-16
rhumerus -22.520298677138157 0.8202913671541818 -82.5572054521981
rradius 34.362395535511396
rwrist 21.642882914736653
rhand -19.012522416396727 -25.67596540526204
rfingers 7.125019999999999
rthumb 7.687328899392615 -55.7990141048881
